inDegrees=no
num_controls=7
num_derivatives=13
num_iterations=136
num_multipliers=7
num_parameters=0
num_slacks=7
num_states=26
objective=5.298662
objective_accelerations=0.543586
objective_balance=0.048322
objective_effort=0.477014
objective_height=4.209119
objective_ligament=0.020622
solver_duration=1546.905007
status=Solve_Succeeded
success=true
DataType=double
version=3
OpenSimVersion=4.4-2022-07-23-0e9fedc
endheader
time	/jointset/ground_pelvis/pelvis_tilt/value	/jointset/ground_pelvis/pelvis_tx/value	/jointset/ground_pelvis/pelvis_ty/value	/jointset/hip_l/hip_flexion_l/value	/jointset/hip_l/hip_adduction_l/value	/jointset/hip_l/hip_rotation_l/value	/jointset/back/lumbar_extension/value	/jointset/patellofemoral_l/patellar_flexion_l/value	/jointset/knee_l/knee_flexion_l/value	/jointset/knee_l/knee_adduction_l/value	/jointset/knee_l/knee_rotation_l/value	/jointset/ankle_l/ankle_angle_l/value	/jointset/subtalar_l/subtalar_angle_l/value	/jointset/ground_pelvis/pelvis_tilt/speed	/jointset/ground_pelvis/pelvis_tx/speed	/jointset/ground_pelvis/pelvis_ty/speed	/jointset/hip_l/hip_flexion_l/speed	/jointset/hip_l/hip_adduction_l/speed	/jointset/hip_l/hip_rotation_l/speed	/jointset/back/lumbar_extension/speed	/jointset/patellofemoral_l/patellar_flexion_l/speed	/jointset/knee_l/knee_flexion_l/speed	/jointset/knee_l/knee_adduction_l/speed	/jointset/knee_l/knee_rotation_l/speed	/jointset/ankle_l/ankle_angle_l/speed	/jointset/subtalar_l/subtalar_angle_l/speed	/forceset/tau_hip_flexion_l	/forceset/tau_hip_adduction_l	/forceset/tau_hip_rotation_l	/forceset/tau_knee_flexion_l	/forceset/tau_ankle_angle_l	/forceset/tau_subtalar_angle_l	/forceset/tau_lumbar_extension	lambda_cid13_p0	lambda_cid13_p1	lambda_cid13_p2	lambda_cid13_p3	lambda_cid13_p4	lambda_cid13_p5	lambda_cid14_p0	/jointset/ground_pelvis/pelvis_tilt/accel	/jointset/ground_pelvis/pelvis_tx/accel	/jointset/ground_pelvis/pelvis_ty/accel	/jointset/hip_l/hip_flexion_l/accel	/jointset/hip_l/hip_adduction_l/accel	/jointset/hip_l/hip_rotation_l/accel	/jointset/back/lumbar_extension/accel	/jointset/patellofemoral_l/patellar_flexion_l/accel	/jointset/knee_l/knee_flexion_l/accel	/jointset/knee_l/knee_adduction_l/accel	/jointset/knee_l/knee_rotation_l/accel	/jointset/ankle_l/ankle_angle_l/accel	/jointset/subtalar_l/subtalar_angle_l/accel	gamma_cid13_p0	gamma_cid13_p1	gamma_cid13_p2	gamma_cid13_p3	gamma_cid13_p4	gamma_cid13_p5	gamma_cid14_p0
0.5	-0.480487288075354	-0.1017780086233027	0.767416045920662	1.266533946635825	-0.309397968944414	-0.08789517452736866	-0.3286018376111552	0.5787292410024485	0.5787292410026622	-0.1744595795186421	0.1724527635929868	-0.05209862841318043	-0.06522048784168041	-0.8571533713258779	-0.3448426755525587	-0.470248935673564	2.380588432020617	-0.06800144252497231	0.4806810725899744	-0.622523513737908	1.475589905835043	1.475589905835024	-0.0002120173331226017	0.01529611212056745	0.007722447013006219	-0.07972897966803083	-0.2593846273661661	0.007783193359472305	-0.01865998605092353	-0.1826731393229177	0.1871292235543968	0.04535282538469584	0.2277934789425468	20.77922651018405	-25.73454512781827	6.441201568521386	-7.134133388340958	-609.0269951425374	-64.74281583003828	-34.10179762502003	0.588276561909427	0.7335710864282337	-0.2401396345575729	-1.558931983163411	0.4229470847452076	-0.1736586471981648	1.744958893930175	-0.9566128386368546	-0.9566128386368185	0.02595198367222916	-0.0898298058154092	0.1051223839258402	0.4312470893196505	3.264155073142391e-08	-7.17274006637937e-07	8.99745079738304e-08	-1.422857780048793e-07	-1.521817743606296e-07	1.095979088330841e-07	-1.058848263828075e-07
0.51	-0.4890275659628602	-0.1051893292157091	0.7627025351624527	1.290257821904281	-0.3100576909873589	-0.08309864686195659	-0.3347398183825159	0.5934354582065092	0.5934354582066041	-0.1744615695394107	0.1726026706465005	-0.05201641464158558	-0.06599706115899477	-0.8507873861840161	-0.3373875258594001	-0.4723575264136278	2.363873352148195	-0.06394938125284912	0.4785616778789588	-0.6050007919052394	1.465459804889119	1.465459804889127	-0.000191879505464924	0.01468992652783252	0.008708852363403874	-0.07559150301875592	-0.268162053134531	0.008466701817410037	-0.01870879765953955	-0.1835217180027683	0.1887467397798402	0.04621998547373212	0.2344707199997488	21.04961684430207	-26.0412025544941	6.356113740414421	-7.37867938506067	-613.5236758040995	-64.48752410663842	-33.39836943105206	0.6779761563667018	0.7565465017800296	-0.1818947278224359	-1.774794885546221	0.3954712365018634	-0.2406135649319409	1.766706122228313	-1.070247214024321	-1.070247214020346	-0.01096857537498134	-0.04538877516226604	0.09368258759067791	0.4042227396941474	2.73853875164491e-08	-6.749041831141283e-07	9.584659958406271e-08	-1.368496210860226e-07	-1.415063644804566e-07	1.17328338588298e-07	-1.037383839674366e-07
0.52	-0.4975007406657437	-0.1085250863929799	0.7579708033100243	1.31380514659476	-0.3106770652999702	-0.0783252198800236	-0.3407004164766914	0.6080345667028185	0.6080345667027975	-0.1744635608334573	0.1727466406762608	-0.05192468022108204	-0.0667324147524239	-0.8437327344004625	-0.3297299925254407	-0.4738931545173419	2.3452783164252	-0.0599318964584956	0.4760609358928007	-0.5870469783008503	1.454168164285036	1.454168164285069	-0.0002122719853095753	0.01410870736870778	0.009626576793557802	-0.07148503489097384	-0.2769394789028709	0.009150210275368787	-0.01875760926814359	-0.1843702966826148	0.19036425600529	0.04708714556279008	0.2411479610569678	21.31076393618899	-26.34769513136723	6.272659805244575	-7.591676039616893	-618.1535610160862	-64.27347854726389	-32.67436462877601	0.7260098902477197	0.774047814588401	-0.1255471072876353	-1.93492315327795	0.4160317891912051	-0.2499281022266474	1.831177248274245	-1.188920770268571	-1.188920770268589	0.01784592217164338	-0.08483651909333104	0.09138619987710792	0.4250453850210285	2.243515837439335e-08	-6.308520923740688e-07	1.008268208394387e-07	-1.307934436843223e-07	-1.307375357369922e-07	1.238020342280325e-07	-1.009707141817432e-07
0.53	-0.5059000797079898	-0.1117833541334611	0.7532265789843149	1.337157407396008	-0.3112564358158598	-0.07357857590724473	-0.3464794423072341	0.6225150277084545	0.6225150277085031	-0.1744659007864982	0.1728848078205147	-0.05182413533696831	-0.06742686227064242	-0.8360287852045964	-0.3218983767343244	-0.4748551221985335	2.32487643393991	-0.05595262980305196	0.4732031015206495	-0.5687046650541461	1.441735278422546	1.441735278422565	-0.0002614804317270387	0.01353175496531219	0.01046741228320878	-0.06741480353507456	-0.2854837367777667	0.009678257253452312	-0.01883780402397676	-0.1852502617233593	0.1920443735606987	0.04781515474232165	0.2475809228454275	21.59617928219561	-26.60229090970308	6.185829330950268	-7.789768366836743	-622.6410976398726	-63.98209326471436	-31.93269509512171	0.8085232852427354	0.7914697643316144	-0.06705835092513703	-2.137441575631845	0.387392982244059	-0.3135326369562035	1.843786775813337	-1.298766353502357	-1.298766353504687	-0.01728185269588329	-0.04313574019789447	0.07818498118704707	0.3965444781267578	1.804380749176612e-08	-5.870857545637497e-07	1.039332362727659e-07	-1.245281271917387e-07	-1.19976110941212e-07	1.286046105738429e-07	-9.766600795682792e-08
0.54	-0.5142191920880711	-0.1149625554554397	0.7484756276313158	1.360296725216516	-0.3117963098894897	-0.06886247458462498	-0.352073439322718	0.6368655010836045	0.6368655010837364	-0.1744689283489432	0.1730174032129062	-0.05171563154641769	-0.06808090098185127	-0.8276874019692801	-0.3139167088249471	-0.4752385599752344	2.302689720275525	-0.05203260800669769	0.4699524058586319	-0.5500412152896531	1.428170638189542	1.428170638189544	-0.0003497938640431399	0.01299435699250735	0.01121835807998071	-0.06340327348908134	-0.2940279946526226	0.01020630423156789	-0.01891799877971905	-0.1861302267640892	0.1937244911161262	0.04854316392188762	0.2540138846339112	21.87253815319725	-26.85699760855183	6.100954345195195	-7.960750195227606	-627.2617744277454	-63.73112479203903	-31.17631294423464	0.8534966981376162	0.8040582382405826	-0.009841126389508185	-2.291889389097075	0.4041828173732546	-0.3285003601999096	1.895404551831892	-1.415271644371404	-1.415271644371731	0.01002492499174378	-0.07692563297514002	0.07340826130127452	0.4133051230397257	1.427079000254915e-08	-5.436355689310156e-07	1.049665048391453e-07	-1.180314227688162e-07	-1.092228777471252e-07	1.315582889774395e-07	-9.376713375660318e-08
0.55	-0.5224518449245155	-0.1180612807513459	0.7437237226567633	1.383205561775042	-0.3122972067457486	-0.06418068370724841	-0.3574792922444892	0.6510747989578588	0.6510747989580102	-0.1744728575052812	0.1731446487362133	-0.05160003812629864	-0.06869504311046161	-0.8187431958795854	-0.3058111309352763	-0.4750460742438187	2.278797765666901	-0.0481553210617653	0.4663429949051647	-0.5310927128504143	1.413511059326423	1.413511059326396	-0.000431883891416262	0.0124583565534568	0.01188705580171204	-0.05943341355031837	-0.3023317002437421	0.01059813198384844	-0.01901653781431219	-0.1869769135801249	0.195373018221238	0.0491523185243251	0.2601943125614044	22.14714217602737	-27.06374086176847	6.012958791668902	-8.103929080298897	-631.6851651550149	-63.40830433364604	-30.4080413305066	0.929870006673826	0.8163675798545891	0.04822685504989379	-2.479831833240008	0.378285881856031	-0.3866752716118787	1.900071522033254	-1.517964279087028	-1.517964279091473	-0.01680056397342473	-0.04145656410240867	0.06161067555717764	0.3876560286876837	1.108853610531365e-08	-5.009612422306735e-07	1.044774173785115e-07	-1.115303117246475e-07	-9.857662867078132e-08	1.330401838954585e-07	-8.945189209550006e-08
0.5600000000000001	-0.5305920582115917	-0.121078438265251	0.7389766292259539	1.405867082120195	-0.3127595738827976	-0.05953688970111909	-0.3626945604554522	0.6651321683891106	0.6651321683892956	-0.1744775024813719	0.1732666303922099	-0.05147815569936762	-0.06926972071980539	-0.8091994920983794	-0.2976031524247284	-0.4742762512265837	2.253226477598466	-0.04432666416474275	0.4623530316040369	-0.5119242731286439	1.397784949591119	1.397784949591064	-0.0004929578136485377	0.01194158352510927	0.01247615944137269	-0.05551036963583005	-0.310635405834814	0.01098995973619469	-0.01911507684882203	-0.1878236003961334	0.1970215453263836	0.04976147312683225	0.2663747404889172	22.41291894435034	-27.27077901197853	5.927112397794986	-8.224452936344733	-636.2409080851611	-63.124512216086	-29.63068726632579	0.9733962364397577	0.8245383624160019	0.105626330774331	-2.627756081059512	0.3944568077911898	-0.404610829731991	1.939392008338107	-1.628577818808438	-1.628577818808335	0.0142281460196899	-0.07308015083450209	0.05748944488708497	0.4039419181846798	8.615198518455884e-09	-4.592179462492021e-07	1.02161502685462e-07	-1.050239127349833e-07	-8.805876053572901e-08	1.327559386307846e-07	-8.463700948134292e-08
0.5700000000000001	-0.5386339854439059	-0.1240130785753688	0.7342401077776582	1.428264779080212	-0.3131837959017439	-0.05493488927064425	-0.3677171323190724	0.6790270723845784	0.6790270723846726	-0.1744823688873908	0.1733834684884519	-0.05135072978143797	-0.06980529544460351	-0.7990925768705899	-0.2893139849462407	-0.4729319930837597	2.22604809800237	-0.04052300646623584	0.4579719809753771	-0.492570209470447	1.381029115684939	1.381029115684759	-0.0004569827804507871	0.01143638167852356	0.01299941677408145	-0.05160899958032374	-0.3186289426222043	0.01125041097872367	-0.01923783724920732	-0.1886981155563683	0.1987401615630734	0.05022145604772868	0.2722571236973711	22.71094477525345	-27.42389659576773	5.838630062575934	-8.351550152970185	-640.5727574167104	-62.76065261301908	-28.84690089879916	1.04333790216079	0.8327243696268287	0.1632159364101799	-2.802610417977421	0.3725851398210971	-0.466199058445317	1.936397063281393	-1.72407986606613	-1.724079866085174	0.001700745423945082	-0.0377421926039342	0.04830331149495504	0.3826271178874965	-1.940902505499674e-08	-3.802397317889608e-07	2.251794528502462e-07	-7.078265380259113e-08	-9.412829000253933e-08	1.532235337685152e-07	-9.304185113185625e-08
